<?xml version="1.0" encoding="UTF-8" standalone="no"?>
<!-- Created with Inkscape (http://www.inkscape.org/) -->

<svg
   width="56.608688mm"
   height="28.453835mm"
   viewBox="0 0 56.608688 28.453835"
   version="1.1"
   id="svg5"
   xml:space="preserve"
   inkscape:version="1.2.2 (732a01da63, 2022-12-09)"
   sodipodi:docname="logo.svg"
   xmlns:inkscape="http://www.inkscape.org/namespaces/inkscape"
   xmlns:sodipodi="http://sodipodi.sourceforge.net/DTD/sodipodi-0.dtd"
   xmlns="http://www.w3.org/2000/svg"
   xmlns:svg="http://www.w3.org/2000/svg"><sodipodi:namedview
     id="namedview7"
     pagecolor="#ffffff"
     bordercolor="#000000"
     borderopacity="0.25"
     inkscape:showpageshadow="2"
     inkscape:pageopacity="0.0"
     inkscape:pagecheckerboard="0"
     inkscape:deskcolor="#d1d1d1"
     inkscape:document-units="mm"
     showgrid="false"
     inkscape:zoom="2.8472754"
     inkscape:cx="512.2441"
     inkscape:cy="538.40946"
     inkscape:window-width="1366"
     inkscape:window-height="745"
     inkscape:window-x="-8"
     inkscape:window-y="-8"
     inkscape:window-maximized="1"
     inkscape:current-layer="layer1"
     showguides="true" /><defs
     id="defs2" /><g
     inkscape:label="Camada 1"
     inkscape:groupmode="layer"
     id="layer1"
     transform="translate(-103.75315,-120.2705)"><path
       style="fill:#000000;fill-opacity:1;stroke:#000000;stroke-width:0.553;stroke-linecap:square;stroke-linejoin:round;stroke-miterlimit:6.3;stroke-opacity:1;paint-order:stroke markers fill"
       d="m 150.979,148.425 v -4.41434 h 4.553 v -7.06231 h 4.55334 l -0.0464,-4.78564 h -4.55334 v -7.06231 h -4.55332 v -4.55333 l -4.73928,-7e-5 v 11.40663 H 117.922 V 120.547 h -4.73929 v 4.43725 h -4.55332 v 7.06231 h -4.55334 l -0.0464,4.78564 h 4.55334 v 7.06231 h 4.55332 v 4.55333 l 4.80343,-0.0232 0.0643,-11.54594 h 28.271 l -0.0178,11.5463 z"
       id="path1129-2-2"
       sodipodi:nodetypes="ccccccccccccccccccccccccccccc" /><text
       xml:space="preserve"
       style="font-size:10.2201px;font-family:Azalea;-inkscape-font-specification:Azalea;letter-spacing:3.30678px;fill:#000000;fill-opacity:1;stroke:#000000;stroke-width:1.78006;stroke-linecap:square;stroke-linejoin:round;stroke-miterlimit:6.3;stroke-opacity:1;paint-order:stroke markers fill"
       x="135.89273"
       y="114.62714"
       id="text3511"
       transform="scale(0.88962629,1.1240675)"><tspan
         sodipodi:role="line"
         id="tspan3509"
         style="font-style:normal;font-variant:normal;font-weight:normal;font-stretch:normal;font-family:'Akira Expanded';-inkscape-font-specification:'Akira Expanded, ';stroke-width:1.78006"
         x="135.89273"
         y="114.62714">MY</tspan></text><g
       aria-label="cym"
       transform="matrix(0.7986358,0,0,1.2521352,0.18585019,0.20392884)"
       id="text3511-9"
       style="font-size:9.35049px;font-family:Azalea;-inkscape-font-specification:Azalea;letter-spacing:1.94382px;stroke:#000000;stroke-width:1.6286;stroke-linecap:square;stroke-linejoin:round;stroke-miterlimit:6.3;paint-order:stroke markers fill"><path
         d="m 155.34423,115.43987 c -0.0155,0.60267 0.0459,1.70905 -1.69673,1.78776 -1.61701,-0.0137 -2.51733,-0.61832 -2.38115,-2.7653 0.0539,-2.33065 3.12843,-2.62047 4.06997,-1.37448 l 2.43265,-0.0308 c -0.90612,-1.21534 -2.74735,-1.52801 -4.17965,-1.50951 -2.46565,0.24515 -4.22744,0.74807 -4.43306,3.10976 -0.0411,2.49288 1.44966,3.04814 4.49124,3.10519 3.22703,-0.002 4.05309,-1.38107 4.14849,-2.32268 z"
         style="font-weight:800;font-family:'Akira Expanded';-inkscape-font-specification:'Akira Expanded,  Ultra-Bold';stroke:#000000;stroke-opacity:1"
         id="path3596"
         sodipodi:nodetypes="cccccccccc" /><path
         d="m 161.87824,111.59607 h -2.84441 l 3.44251,4.04062 v 2.09564 h 2.39241 v -2.09564 l 3.44252,-4.04062 h -2.83985 l -1.79887,2.20066 z"
         style="font-weight:800;font-family:'Akira Expanded';-inkscape-font-specification:'Akira Expanded,  Ultra-Bold'"
         id="path3598" /><path
         d="m 170.43772,117.7232 h 2.39241 v -3.27358 l 2.39697,3.27358 h 1.19621 l 2.39697,-3.27358 v 3.27358 h 2.39241 v -6.13626 h -2.99051 l -2.39697,3.06813 -2.39241,-3.06813 h -2.99508 z"
         style="font-weight:800;font-family:'Akira Expanded';-inkscape-font-specification:'Akira Expanded,  Ultra-Bold'"
         id="path3600" /></g><path
       style="fill:#000000;fill-opacity:1;stroke:#000000;stroke-width:0.553;stroke-linecap:round;stroke-linejoin:round;stroke-miterlimit:6.3;stroke-opacity:1;paint-order:stroke markers fill"
       d="m 122.99434,144.09048 c -0.0833,-0.12661 0.80679,-0.14884 2.60355,-3e-5 l -0.72018,0.85956 -1.88339,0.0465 z"
       id="path3666"
       sodipodi:nodetypes="ccccc" /></g></svg>
